<svg xmlns="http://www.w3.org/2000/svg" xmlns:xlink="http://www.w3.org/1999/xlink" version="1.1" id="Layer_1" x="0px" y="0px" width="90px" height="90px" viewBox="0 0 90 90" enable-background="new 0 0 90 90" xml:space="preserve">
<path d="M44.931,1.134c-15.861,0-54.806,5.91-25.929,56.296c12.353,21.55,21.042,31.437,26.01,31.437  c4.969,0,13.659-9.887,26.012-31.437C99.901,7.043,60.792,1.134,44.931,1.134z M59.65,49.304c0,3.564-4.095,4.844-6.729,4.844  c-3.713,0-6.726-2.167-6.726-4.844c0-2.673,3.013-4.84,6.726-4.84c1.607,0,3.083,0.406,4.241,1.08c0,0,0-9.399,0-15.722  L39.36,31.718v19.75c0,3.561-4.095,4.84-6.729,4.84c-3.714,0-6.726-2.167-6.726-4.84c0-2.678,3.011-4.844,6.726-4.844  c1.607,0,3.082,0.405,4.241,1.082c0,0,0-20.322,0-21.22c0-0.898,0.759-1.094,1.24-1.145c0.485-0.053,20.292-2.163,20.292-2.163  c0.93-0.061,1.247,0.36,1.247,1.454V49.304z"/>
</svg>